<?xml version="1.0" encoding="utf-8"?>
<!-- Grand Ink ব্র্যান্ড আইকন — গাঢ় এমারেল্ড টাইল + সাদা খোলা বই + সোনালি বুকমার্ক ফিতা -->
<svg xmlns="http://www.w3.org/2000/svg" viewBox="0 0 64 64">
  <defs>
    <linearGradient id="tile" x1="0" y1="0" x2="1" y2="1">
      <stop offset="0" stop-color="#2e9069"/>
      <stop offset="0.52" stop-color="#1c6b4c"/>
      <stop offset="1" stop-color="#124633"/>
    </linearGradient>
    <linearGradient id="shine" x1="0" y1="0" x2="0" y2="1">
      <stop offset="0" stop-color="#ffffff" stop-opacity="0.22"/>
      <stop offset="0.45" stop-color="#ffffff" stop-opacity="0"/>
    </linearGradient>
  </defs>
  <rect x="2" y="2" width="60" height="60" rx="15" fill="url(#tile)"/>
  <rect x="2" y="2" width="60" height="60" rx="15" fill="url(#shine)"/>
  <g fill="none" stroke="#ffffff" stroke-width="3.4" stroke-linecap="round" stroke-linejoin="round">
    <path d="M32 17.6C28.1 14.1 22.8 12.9 17 12.9a1.6 1.6 0 0 0-1.6 1.6v26.9a1.6 1.6 0 0 0 1.6 1.6c5.8 0 11.1 1.2 15 4.7 3.9-3.5 9.2-4.7 15-4.7a1.6 1.6 0 0 0 1.6-1.6V14.5a1.6 1.6 0 0 0-1.6-1.6c-5.8 0-11.1 1.2-15 4.7Z"/>
    <path d="M32 17.6v29.7"/>
  </g>
  <path d="M37.6 11.5v11.6l3.9-3.1 3.9 3.1V11.9a7.8 7.8 0 0 0-7.8-.4Z" fill="#f2b32c" stroke="#f2b32c" stroke-width="1.6" stroke-linejoin="round"/>
</svg>
